<svg width="18" height="21" viewBox="0 0 18 21" fill="none" xmlns="http://www.w3.org/2000/svg">
<path d="M17.5 13.625C17.5 14.2109 17.2266 14.6797 16.875 15.0703V18.2344C17.2266 18.4688 17.5 18.8594 17.5 19.2891C17.5 19.9531 16.9141 20.5 16.25 20.5H3.75C1.64062 20.5 0 18.8594 0 16.75V4.25C0 2.17969 1.64062 0.5 3.75 0.5H15.625C16.6406 0.5 17.5 1.35938 17.5 2.375V13.625ZM5.58594 5.5C5.27344 5.5 5 5.8125 5 6.125C5 6.47656 5.27344 6.75 5.58594 6.75H13.125C13.4375 6.75 13.75 6.47656 13.75 6.125C13.75 5.8125 13.4375 5.5 13.0859 5.5H5.58594ZM5.58594 8C5.27344 8 5 8.3125 5 8.625C5 8.97656 5.27344 9.25 5.58594 9.25H13.125C13.4375 9.25 13.75 8.97656 13.75 8.625C13.75 8.3125 13.4375 8 13.0859 8H5.58594ZM15 18V15.5H3.75C3.04688 15.5 2.5 16.0859 2.5 16.75C2.5 17.4531 3.04688 18 3.75 18H15Z" fill="#D9B535"/>
</svg>
