<svg width="50" height="50" viewBox="0 0 50 50" fill="none" xmlns="http://www.w3.org/2000/svg">
<rect width="50" height="50" rx="25" fill="#282828"/>
<path d="M29.4869 17.8622L31.1739 16.1742C31.5256 15.8226 32.0025 15.625 32.4999 15.625C32.9972 15.625 33.4742 15.8226 33.8259 16.1742C34.1776 16.5259 34.3751 17.0029 34.3751 17.5002C34.3751 17.9976 34.1776 18.4746 33.8259 18.8262L23.2069 29.4452C22.6782 29.9736 22.0262 30.362 21.3099 30.5752L18.6249 31.3752L19.4249 28.6902C19.6382 27.9739 20.0265 27.3219 20.5549 26.7932L29.4869 17.8622ZM29.4869 17.8622L32.1249 20.5002M30.6249 27.3752V32.1252C30.6249 32.722 30.3878 33.2943 29.9659 33.7162C29.5439 34.1382 28.9716 34.3752 28.3749 34.3752H17.8749C17.2781 34.3752 16.7058 34.1382 16.2839 33.7162C15.8619 33.2943 15.6249 32.722 15.6249 32.1252V21.6252C15.6249 21.0285 15.8619 20.4562 16.2839 20.0343C16.7058 19.6123 17.2781 19.3752 17.8749 19.3752H22.6249" stroke="#F4F4F4" strokeWidth="1.5" strokeLinecap="round" strokeLinejoin="round"/>
</svg>
