<svg width="20" height="21" viewBox="0 0 20 21" fill="none" xmlns="http://www.w3.org/2000/svg">
<path d="M20 10.5C20 16.0469 15.5078 20.5 10 20.5C4.45312 20.5 0 16.0469 0 10.5C0 4.99219 4.45312 0.5 10 0.5C15.5078 0.5 20 4.99219 20 10.5ZM10.9375 11.9453V3.9375C10.9375 3.42969 10.5078 3 10 3C9.45312 3 9.0625 3.42969 9.0625 3.9375V11.9453C8.125 12.3359 7.5 13.2344 7.5 14.25C7.5 15.6562 8.59375 16.75 10 16.75C11.3672 16.75 12.5 15.6562 12.5 14.25C12.5 13.2344 11.8359 12.3359 10.9375 11.9453ZM5.625 7.375C6.28906 7.375 6.875 6.82812 6.875 6.125C6.875 5.46094 6.28906 4.875 5.625 4.875C4.92188 4.875 4.375 5.46094 4.375 6.125C4.375 6.82812 4.92188 7.375 5.625 7.375ZM3.75 9.25C3.04688 9.25 2.5 9.83594 2.5 10.5C2.5 11.2031 3.04688 11.75 3.75 11.75C4.41406 11.75 5 11.2031 5 10.5C5 9.83594 4.41406 9.25 3.75 9.25ZM16.25 11.75C16.9141 11.75 17.5 11.2031 17.5 10.5C17.5 9.83594 16.9141 9.25 16.25 9.25C15.5469 9.25 15 9.83594 15 10.5C15 11.2031 15.5469 11.75 16.25 11.75ZM14.375 4.875C13.6719 4.875 13.125 5.46094 13.125 6.125C13.125 6.82812 13.6719 7.375 14.375 7.375C15.0391 7.375 15.625 6.82812 15.625 6.125C15.625 5.46094 15.0391 4.875 14.375 4.875Z" fill="#D9B535"/>
</svg>
