<svg width="50" height="50" viewBox="0 0 50 50" fill="none" xmlns="http://www.w3.org/2000/svg">
<rect width="50" height="50" rx="25" fill="#0C0C0C" fill-opacity="0.6"/>
<path d="M29.4868 17.8622L31.1738 16.1742C31.5254 15.8226 32.0024 15.625 32.4998 15.625C32.9971 15.625 33.4741 15.8226 33.8258 16.1742C34.1774 16.5259 34.375 17.0029 34.375 17.5002C34.375 17.9976 34.1774 18.4746 33.8258 18.8262L23.2068 29.4452C22.6781 29.9736 22.0261 30.362 21.3098 30.5752L18.6248 31.3752L19.4248 28.6902C19.638 27.9739 20.0264 27.3219 20.5548 26.7932L29.4868 17.8622ZM29.4868 17.8622L32.1248 20.5002M30.6248 27.3752V32.1252C30.6248 32.722 30.3877 33.2943 29.9657 33.7162C29.5438 34.1382 28.9715 34.3752 28.3748 34.3752H17.8748C17.278 34.3752 16.7057 34.1382 16.2838 33.7162C15.8618 33.2943 15.6248 32.722 15.6248 32.1252V21.6252C15.6248 21.0285 15.8618 20.4562 16.2838 20.0343C16.7057 19.6123 17.278 19.3752 17.8748 19.3752H22.6248" stroke="#F4F4F4" strokeWidth="1.5" strokeLinecap="round" strokeLinejoin="round"/>
</svg>
