<svg width="56" height="56" viewBox="0 0 56 56" fill="none" xmlns="http://www.w3.org/2000/svg">
<rect x="0.5" y="0.5" width="55" height="55" fill="#0C0C0C"/>
<rect x="0.5" y="0.5" width="55" height="55" stroke="#282828"/>
<path d="M29 19C31.755 19 34.455 19.232 37.083 19.678C37.616 19.768 38 20.234 38 20.774V21.818C38 22.1135 37.9418 22.4061 37.8287 22.679C37.7157 22.952 37.5499 23.2001 37.341 23.409L31.909 28.841C31.7001 29.0499 31.5343 29.298 31.4213 29.571C31.3082 29.8439 31.25 30.1365 31.25 30.432V33.359C31.2501 33.777 31.1337 34.1867 30.914 34.5423C30.6943 34.8978 30.3799 35.1851 30.006 35.372L26.75 37V30.432C26.75 30.1365 26.6918 29.8439 26.5787 29.571C26.4657 29.298 26.2999 29.0499 26.091 28.841L20.659 23.409C20.4501 23.2001 20.2843 22.952 20.1713 22.679C20.0582 22.4061 20 22.1135 20 21.818V20.774C20 20.234 20.384 19.768 20.917 19.678C23.5876 19.2259 26.2914 18.9991 29 19Z" stroke="#F4F4F4" strokeWidth="1.5" strokeLinecap="round" strokeLinejoin="round"/>
</svg>
