<svg width="16" height="18" viewBox="0 0 16 18" fill="none" xmlns="http://www.w3.org/2000/svg">
<path d="M1.30249 2.65357C1.30249 1.79757 2.21949 1.25557 2.96949 1.66757L14.5095 8.01457C14.6861 8.11161 14.8334 8.25431 14.9361 8.42776C15.0387 8.60121 15.0928 8.79904 15.0928 9.00057C15.0928 9.2021 15.0387 9.39993 14.9361 9.57338C14.8334 9.74683 14.6861 9.88953 14.5095 9.98657L2.96949 16.3336C2.79818 16.4278 2.60527 16.4757 2.4098 16.4726C2.21433 16.4695 2.02303 16.4156 1.85476 16.316C1.68649 16.2165 1.54706 16.0749 1.45022 15.905C1.35338 15.7352 1.30246 15.5431 1.30249 15.3476V2.65357Z" stroke="#030303" strokeWidth="1.5" strokeLinecap="round" strokeLinejoin="round"/>
</svg>
