<svg width="19" height="18" viewBox="0 0 19 18" fill="none" xmlns="http://www.w3.org/2000/svg">
<path d="M1.3125 9H17.8125M1.3125 12.75H17.8125M1.3125 16.5H17.8125M3.1875 1.5H15.9375C16.4348 1.5 16.9117 1.69754 17.2633 2.04917C17.615 2.40081 17.8125 2.87772 17.8125 3.375C17.8125 3.87228 17.615 4.34919 17.2633 4.70083C16.9117 5.05246 16.4348 5.25 15.9375 5.25H3.1875C2.69022 5.25 2.21331 5.05246 1.86167 4.70083C1.51004 4.34919 1.3125 3.87228 1.3125 3.375C1.3125 2.87772 1.51004 2.40081 1.86167 2.04917C2.21331 1.69754 2.69022 1.5 3.1875 1.5Z" stroke="#F4F4F4" strokeWidth="1.5" strokeLinecap="round" strokeLinejoin="round"/>
</svg>
