<svg width="35" height="24" viewBox="0 0 35 24" fill="none" xmlns="http://www.w3.org/2000/svg">
<path d="M12.3217 10.8878C12.0795 10.4521 11.6996 10.1091 11.2414 9.91273C10.7833 9.71635 10.2729 9.67766 9.79042 9.80273C9.30791 9.9278 8.8806 10.2096 8.57555 10.6038C8.2705 10.998 8.10498 11.4823 8.10498 11.9808C8.10498 12.4792 8.2705 12.9635 8.57555 13.3577C8.8806 13.752 9.30791 14.0337 9.79042 14.1588C10.2729 14.2838 10.7833 14.2451 11.2414 14.0488C11.6996 13.8524 12.0795 13.5094 12.3217 13.0738M12.3217 10.8878C12.5017 11.2118 12.6047 11.5838 12.6047 11.9808C12.6047 12.3778 12.5017 12.7508 12.3217 13.0738M12.3217 10.8878L21.8877 5.57375M12.3217 13.0738L21.8877 18.3878M21.8877 5.57375C22.0279 5.83789 22.2194 6.07142 22.451 6.26068C22.6825 6.44994 22.9495 6.59114 23.2363 6.67603C23.523 6.76091 23.8239 6.78777 24.1211 6.75504C24.4184 6.72232 24.7062 6.63065 24.9676 6.48541C25.229 6.34017 25.4589 6.14427 25.6437 5.90917C25.8285 5.67406 25.9647 5.40446 26.0441 5.11613C26.1235 4.82781 26.1447 4.52654 26.1063 4.22995C26.0679 3.93335 25.9708 3.64738 25.8207 3.38875C25.5247 2.87909 25.0406 2.50589 24.4725 2.34937C23.9043 2.19284 23.2974 2.26549 22.7822 2.55171C22.267 2.83792 21.8847 3.31484 21.7174 3.87995C21.5502 4.44505 21.6113 5.05323 21.8877 5.57375ZM21.8877 18.3878C21.7441 18.6461 21.6529 18.9302 21.6192 19.2239C21.5854 19.5175 21.6099 19.8149 21.6911 20.0991C21.7723 20.3833 21.9087 20.6487 22.0924 20.8802C22.2762 21.1117 22.5038 21.3047 22.7622 21.4483C23.0205 21.5918 23.3047 21.683 23.5983 21.7168C23.8919 21.7505 24.1893 21.7261 24.4735 21.6449C24.7577 21.5636 25.0231 21.4273 25.2546 21.2435C25.4861 21.0597 25.6791 20.8321 25.8227 20.5738C26.1125 20.0519 26.1833 19.4363 26.0193 18.8624C25.8553 18.2884 25.47 17.8031 24.9482 17.5133C24.4264 17.2234 23.8108 17.1526 23.2368 17.3167C22.6628 17.4807 22.1775 17.8659 21.8877 18.3878Z" stroke="#F4F4F4" strokeWidth="1.5" strokeLinecap="round" strokeLinejoin="round"/>
</svg>
