<svg width="100" height="100" viewBox="0 0 100 100" fill="none" xmlns="http://www.w3.org/2000/svg">
<rect width="100" height="100" fill="#0C0C0C"/>
<path d="M36.6205 43.5147L64 35.7304M64 52.7339V62.4643C63.9997 63.7328 63.5843 64.9668 62.8164 65.9795C62.0486 66.9921 60.9702 67.7283 59.7444 68.0768L56.3025 69.055C55.7057 69.2345 55.0789 69.294 54.4588 69.2302C53.8386 69.1663 53.2374 68.9804 52.6902 68.6832C52.1429 68.386 51.6605 67.9834 51.2711 67.4989C50.8817 67.0145 50.5929 66.4578 50.4218 65.8612C50.2506 65.2646 50.2003 64.6402 50.274 64.0241C50.3476 63.4081 50.5436 62.8127 50.8507 62.2728C51.1577 61.7328 51.5696 61.259 52.0623 60.8789C52.5551 60.4989 53.1189 60.2201 53.721 60.0589L59.7444 58.3464C60.9702 57.998 62.0486 57.2617 62.8164 56.2491C63.5843 55.2364 63.9997 54.0025 64 52.7339ZM64 52.7339V26L36.6205 33.7843V60.5182M36.6205 60.5182V70.2486C36.6203 71.5172 36.2048 72.7511 35.437 73.7638C34.6692 74.7764 33.5908 75.5127 32.365 75.8611L28.923 76.8393C27.731 77.1585 26.4606 76.9983 25.3862 76.3934C24.3118 75.7885 23.5196 74.7873 23.1807 73.6062C22.8418 72.425 22.9833 71.1586 23.5746 70.0803C24.166 69.0021 25.1598 68.1986 26.3415 67.8432L32.365 66.1307C33.5908 65.7823 34.6692 65.046 35.437 64.0334C36.2048 63.0207 36.6203 61.7868 36.6205 60.5182Z" stroke="#282828" strokeWidth="1.5" strokeLinecap="round" strokeLinejoin="round"/>
</svg>
