<svg width="42" height="28" viewBox="0 0 42 28" fill="none" xmlns="http://www.w3.org/2000/svg">
<path d="M39.4211 0H2.57895C1.15463 0 0 1.12503 0 2.51282V25.4872C0 26.875 1.15463 28 2.57895 28H39.4211C40.8454 28 42 26.875 42 25.4872V2.51282C42 1.12503 40.8454 0 39.4211 0Z" fill="white"/>
<path d="M18.7377 19.4194H15.8667L17.6625 9.48389H20.5333L18.7377 19.4194Z" fill="#15195A"/>
<path d="M28.9333 9.46033C28.381 9.25687 27.5049 9.03223 26.4218 9.03223C23.6564 9.03223 21.7091 10.4014 21.6971 12.3587C21.6741 13.8029 23.0913 14.605 24.1513 15.0866C25.2346 15.5787 25.603 15.8998 25.603 16.3384C25.5919 17.0121 24.7275 17.3225 23.9213 17.3225C22.8033 17.3225 22.2043 17.1625 21.2939 16.7877L20.9252 16.6271L20.5333 18.8841C21.1901 19.1619 22.4001 19.4085 23.6564 19.4193C26.5946 19.4193 28.5075 18.0714 28.5301 15.9854C28.5413 14.8408 27.793 13.9637 26.1796 13.247C25.2002 12.787 24.6004 12.4767 24.6004 12.006C24.6119 11.5781 25.1077 11.1398 26.2133 11.1398C27.1236 11.1183 27.7926 11.3215 28.2992 11.5248L28.5525 11.6316L28.9333 9.46033Z" fill="#15195A"/>
<path fill-rule="evenodd" clip-rule="evenodd" d="M34.212 9.48389H36.4251L38.7333 19.4194H36.0842C36.0842 19.4194 35.8249 18.2778 35.7428 17.929H32.0692C31.9631 18.1931 31.4688 19.4194 31.4688 19.4194H28.4667L32.7165 10.3082C33.011 9.66343 33.5295 9.48389 34.212 9.48389ZM34.0357 13.1198C34.0357 13.1198 33.1289 15.3289 32.8933 15.8996H35.2716C35.1539 15.403 34.612 13.0246 34.612 13.0246L34.4121 12.1686C34.3279 12.389 34.2061 12.6921 34.124 12.8965C34.0683 13.0351 34.0308 13.1283 34.0357 13.1198Z" fill="#15195A"/>
<path fill-rule="evenodd" clip-rule="evenodd" d="M3.31371 9.48389H7.91238C8.53579 9.50484 9.04157 9.68471 9.20612 10.3199L10.2055 14.8898L10.2058 14.8906L10.5117 16.2661L13.3109 9.48389H16.3333L11.8406 19.4194H8.81803L6.27044 10.7772C5.39144 10.3148 4.38827 9.94287 3.26666 9.68486L3.31371 9.48389Z" fill="#15195A"/>
</svg>
