<svg width="16" height="16" viewBox="0 0 16 16" fill="none" xmlns="http://www.w3.org/2000/svg">
<path d="M8 4.5C7.86739 4.5 7.74022 4.44732 7.64645 4.35355C7.55268 4.25979 7.5 4.13261 7.5 4C7.5 3.86739 7.55268 3.74021 7.64645 3.64645C7.74022 3.55268 7.86739 3.5 8 3.5C8.13261 3.5 8.25978 3.55268 8.35355 3.64645C8.44732 3.74021 8.5 3.86739 8.5 4C8.5 4.13261 8.44732 4.25979 8.35355 4.35355C8.25978 4.44732 8.13261 4.5 8 4.5ZM8 8.5C7.86739 8.5 7.74022 8.44732 7.64645 8.35355C7.55268 8.25979 7.5 8.13261 7.5 8C7.5 7.86739 7.55268 7.74022 7.64645 7.64645C7.74022 7.55268 7.86739 7.5 8 7.5C8.13261 7.5 8.25978 7.55268 8.35355 7.64645C8.44732 7.74022 8.5 7.86739 8.5 8C8.5 8.13261 8.44732 8.25979 8.35355 8.35355C8.25978 8.44732 8.13261 8.5 8 8.5ZM8 12.5C7.86739 12.5 7.74022 12.4473 7.64645 12.3536C7.55268 12.2598 7.5 12.1326 7.5 12C7.5 11.8674 7.55268 11.7402 7.64645 11.6464C7.74022 11.5527 7.86739 11.5 8 11.5C8.13261 11.5 8.25978 11.5527 8.35355 11.6464C8.44732 11.7402 8.5 11.8674 8.5 12C8.5 12.1326 8.44732 12.2598 8.35355 12.3536C8.25978 12.4473 8.13261 12.5 8 12.5Z" stroke="#F4F4F4" strokeWidth="1.5" strokeLinecap="round" strokeLinejoin="round"/>
</svg>
