<svg width="22" height="20" viewBox="0 0 22 20" fill="none" xmlns="http://www.w3.org/2000/svg">
<path d="M18.469 3.63589C19.3047 4.47162 19.9677 5.46377 20.42 6.55571C20.8723 7.64765 21.1051 8.81798 21.1051 9.99989C21.1051 11.1818 20.8723 12.3521 20.42 13.4441C19.9677 14.536 19.3047 15.5282 18.469 16.3639M15.818 6.28789C16.8024 7.27243 17.3554 8.60765 17.3554 9.99989C17.3554 11.3921 16.8024 12.7273 15.818 13.7119M6.10498 6.24989L10.825 1.52989C10.9299 1.42513 11.0635 1.35381 11.2088 1.32492C11.3542 1.29604 11.5049 1.31089 11.6419 1.3676C11.7789 1.42431 11.896 1.52034 11.9784 1.64356C12.0608 1.76677 12.1049 1.91165 12.105 2.05989V17.9399C12.1049 18.0881 12.0608 18.233 11.9784 18.3562C11.896 18.4794 11.7789 18.5755 11.6419 18.6322C11.5049 18.6889 11.3542 18.7037 11.2088 18.6749C11.0635 18.646 10.9299 18.5746 10.825 18.4699L6.10498 13.7499H3.86498C2.98498 13.7499 2.16098 13.2429 1.92698 12.3959C1.71249 11.6153 1.60418 10.8094 1.60498 9.99989C1.60498 9.16989 1.71698 8.36689 1.92698 7.60389C2.16098 6.75589 2.98498 6.24989 3.86498 6.24989H6.10498Z" stroke="#F4F4F4" strokeWidth="1.5" strokeLinecap="round" strokeLinejoin="round"/>
</svg>
