<svg width="14" height="13" viewBox="0 0 14 13" fill="none" xmlns="http://www.w3.org/2000/svg">
<path d="M13 6.5C13 6.10218 12.842 5.72064 12.5607 5.43934C12.2794 5.15804 11.8978 5 11.5 5H9C9 5.53043 8.78929 6.03914 8.41421 6.41421C8.03914 6.78929 7.53043 7 7 7C6.46957 7 5.96086 6.78929 5.58579 6.41421C5.21071 6.03914 5 5.53043 5 5H2.5C2.10218 5 1.72064 5.15804 1.43934 5.43934C1.15804 5.72064 1 6.10218 1 6.5M13 6.5V10.5C13 10.8978 12.842 11.2794 12.5607 11.5607C12.2794 11.842 11.8978 12 11.5 12H2.5C2.10218 12 1.72064 11.842 1.43934 11.5607C1.15804 11.2794 1 10.8978 1 10.5V6.5M13 6.5V4.5M1 6.5V4.5M13 4.5C13 4.10218 12.842 3.72064 12.5607 3.43934C12.2794 3.15804 11.8978 3 11.5 3H2.5C2.10218 3 1.72064 3.15804 1.43934 3.43934C1.15804 3.72064 1 4.10218 1 4.5M13 4.5V2.5C13 2.10218 12.842 1.72064 12.5607 1.43934C12.2794 1.15804 11.8978 1 11.5 1H2.5C2.10218 1 1.72064 1.15804 1.43934 1.43934C1.15804 1.72064 1 2.10218 1 2.5V4.5" stroke="#F4F4F4" strokeWidth="1.5" strokeLinecap="round" strokeLinejoin="round"/>
</svg>
